 <svg version="1.0" xmlns="http://www.w3.org/2000/svg" width="700.000000pt" height="467.000000pt" viewBox="0 0 700.000000 467.000000" preserveAspectRatio="xMidYMid meet">
<metadata>
Created by potrace 1.12, written by Peter Selinger 2001-2015
</metadata>
<g transform="translate(0.000000,467.000000) scale(0.100000,-0.100000)" fill="#000000" stroke="none">
<path d="M0 3890 c0 -429 3 -780 8 -780 4 0 45 37 92 81 47 44 122 105 166
135 80 53 268 153 290 154 6 0 44 15 85 34 149 68 368 101 506 76 37 -6 136
-33 218 -58 143 -44 156 -46 272 -47 l121 0 -16 -29 c-25 -45 -90 -106 -111
-106 -10 0 -45 17 -77 39 -33 21 -70 42 -84 46 -14 4 -52 21 -85 37 -52 27
-68 30 -120 25 -60 -5 -191 -44 -252 -76 -75 -39 -178 -118 -268 -206 -52 -52
-100 -95 -105 -95 -18 0 -80 -63 -97 -98 -43 -91 -149 -149 -278 -153 -68 -2
-91 -9 -193 -51 l-72 -31 0 -419 c0 -396 1 -420 18 -413 9 4 41 16 71 26 30
11 97 42 149 70 l95 50 -32 -40 c-39 -50 -57 -63 -193 -152 l-108 -70 0 -111
0 -111 43 49 c67 76 85 94 202 189 123 101 178 153 207 199 39 62 8 -15 -38
-94 -68 -116 -110 -166 -233 -277 -105 -95 -141 -119 -141 -93 0 7 -6 7 -20 0
-20 -10 -20 -21 -20 -570 0 -437 3 -560 13 -562 6 0 17 -2 24 -2 29 -3 93 -69
103 -106 6 -22 15 -42 20 -45 6 -3 10 -14 10 -23 0 -10 -10 -3 -25 20 -28 42
-134 132 -144 123 -3 -4 14 -24 39 -45 25 -22 37 -38 28 -36 -9 1 -25 10 -36
19 -26 24 -32 21 -32 -13 0 -24 10 -37 56 -71 30 -23 67 -63 82 -88 30 -52 80
-122 117 -163 24 -27 28 -28 122 -28 l98 1 -32 27 c-43 38 -86 67 -98 67 -14
0 -26 58 -35 171 -4 55 -13 110 -19 121 -6 12 -33 37 -60 57 -64 47 -119 109
-127 143 -4 16 -15 45 -25 65 -20 39 -19 60 8 155 14 51 68 142 115 193 42 45
78 98 78 114 0 15 47 65 218 230 83 80 120 139 166 266 24 67 69 116 139 149
35 17 79 41 100 55 91 62 4 -31 -127 -136 -82 -65 -117 -115 -131 -188 -10
-49 7 -28 35 44 25 64 67 111 160 180 74 56 313 296 373 374 26 35 59 87 74
115 l26 52 14 -55 c17 -68 23 -74 23 -24 l1 39 19 -55 c24 -69 42 -100 99
-175 56 -73 68 -84 155 -130 57 -32 77 -37 125 -36 39 0 52 -2 41 -9 -13 -8
-12 -10 2 -10 27 0 58 -31 79 -78 22 -50 23 -56 8 -47 -6 4 1 -16 16 -44 14
-29 33 -55 41 -58 8 -3 29 -26 46 -51 54 -79 143 -160 188 -172 22 -6 38 -15
36 -19 -7 -10 31 -28 78 -37 20 -3 39 -10 42 -15 3 -5 14 -9 25 -9 13 0 -10
26 -72 82 -104 92 -174 182 -249 318 -29 52 -58 102 -66 111 -8 8 -14 22 -14
29 0 7 22 -9 49 -36 48 -48 94 -119 152 -236 30 -60 148 -187 199 -213 17 -9
30 -19 30 -23 0 -5 18 -19 40 -31 23 -12 71 -54 109 -92 37 -38 73 -69 79 -69
7 0 12 -4 12 -10 0 -5 15 -10 33 -10 24 0 28 3 17 10 -27 17 -3 11 59 -16 34
-15 61 -30 61 -35 0 -4 -15 -1 -32 8 -72 36 -74 37 -58 20 13 -13 34 -26 115
-71 11 -6 33 -20 48 -30 48 -33 39 -11 -13 28 -67 51 -64 57 5 9 30 -21 54
-43 52 -49 -1 -7 33 -50 76 -97 77 -84 92 -104 160 -202 48 -70 97 -164 97
-187 0 -10 7 -32 15 -48 14 -27 14 -30 -5 -40 -11 -6 -18 -16 -14 -21 4 -6 16
-2 30 12 l24 22 16 -38 c10 -24 13 -48 8 -64 -4 -14 -8 -44 -8 -66 -1 -22 -5
-52 -10 -66 -6 -22 -2 -33 26 -64 49 -56 102 -76 201 -76 45 0 135 -1 200 -2
l117 -3 31 32 c49 51 37 85 -79 208 -52 56 -103 115 -114 132 -22 37 -74 73
-141 98 -62 23 -167 106 -243 192 -130 148 -274 368 -274 421 0 39 -15 73 -63
145 -32 47 -37 63 -32 88 4 16 10 32 14 34 8 5 182 -43 236 -65 l30 -12 -25
-7 c-20 -6 -21 -8 -6 -9 15 -1 17 -4 9 -12 -7 -7 -17 -8 -25 -3 -25 16 -48 14
-58 -7 -10 -19 -10 -20 9 -10 32 18 45 13 20 -8 l-23 -18 47 -71 c73 -111 151
-165 317 -217 90 -29 148 -10 218 69 48 55 40 132 -23 200 -19 21 -35 40 -35
42 0 7 76 -10 81 -18 4 -6 22 -8 42 -7 20 2 39 0 43 -4 4 -4 38 -7 76 -7 41 0
68 -4 68 -11 0 -6 9 -8 20 -4 12 4 20 2 20 -5 0 -6 10 -8 26 -4 23 6 36 -4
118 -89 95 -100 138 -127 201 -127 46 0 85 -20 165 -87 74 -61 197 -128 319
-172 121 -44 240 -61 416 -59 173 2 231 -8 342 -59 46 -21 103 -39 142 -44
148 -19 228 -65 271 -156 20 -42 21 -56 15 -136 -7 -84 -6 -90 16 -114 13 -14
45 -36 72 -49 26 -13 47 -28 47 -32 -1 -17 -37 -51 -60 -55 -14 -2 96 -5 244
-6 l270 -1 -32 33 c-33 34 -121 87 -145 87 -22 0 -46 33 -53 71 -13 68 -81
143 -166 183 -40 19 -85 74 -138 169 -30 53 -31 62 -25 117 4 33 11 60 16 60
8 0 11 -13 14 -80 2 -36 16 -100 24 -104 3 -2 6 54 6 124 l0 128 -41 48 c-42
50 -116 102 -146 103 -10 1 -18 6 -18 11 0 16 123 12 164 -5 37 -16 100 -12
112 6 3 5 14 9 24 9 33 0 83 87 104 181 3 15 -1 49 -9 77 -18 60 -59 97 -173
158 -74 39 -154 115 -282 264 -30 35 -83 92 -117 126 -35 35 -63 67 -63 72 0
5 -12 15 -27 23 -16 7 -42 24 -59 36 -17 13 -35 23 -41 23 -21 0 -44 40 -63
109 -42 151 -80 213 -210 351 -87 92 -138 198 -150 312 -5 53 -19 111 -35 150
-88 212 -87 210 -83 267 6 69 35 131 68 147 14 7 61 19 105 27 47 8 123 34
182 61 99 44 105 46 190 44 67 -2 116 4 206 26 l119 28 60 -27 c50 -23 69 -26
110 -21 47 7 98 24 108 37 3 3 52 9 110 12 123 6 130 8 192 38 41 20 52 32 84
95 45 89 42 119 -21 214 -58 87 -76 133 -66 167 14 52 0 76 -61 107 -47 23
-78 30 -165 37 -60 5 -125 13 -145 18 -21 5 -38 6 -38 3 0 -4 -21 14 -47 39
-27 25 -63 56 -80 68 l-33 22 -39 -22 c-41 -23 -65 -22 -131 1 -119 43 -149
64 -214 153 -51 70 -74 78 -221 75 -86 -1 -137 2 -152 10 -12 7 -38 12 -58 12
-19 0 -50 6 -68 13 -18 8 -56 17 -86 21 -40 5 -61 14 -78 32 -13 14 -31 24
-41 22 -10 -2 -24 7 -34 24 -10 15 -40 39 -67 53 -42 21 -64 25 -136 25 -101
0 -106 -9 -43 -72 37 -37 40 -42 22 -48 -11 -5 -45 2 -83 16 -76 29 -83 29
-51 4 l25 -19 -40 10 c-52 14 -152 47 -173 58 -75 37 -119 51 -163 51 l-50 0
39 -52 c55 -76 115 -103 267 -122 66 -9 134 -20 150 -25 60 -19 -109 -12 -211
9 -85 17 -107 26 -165 67 -186 132 -167 122 -246 123 -40 0 -73 -4 -75 -10 -2
-7 -13 -7 -34 0 -17 6 -62 10 -100 8 l-69 -3 35 -17 c19 -9 77 -26 128 -38 50
-12 92 -26 92 -30 0 -22 -35 -31 -122 -31 -133 0 -236 33 -285 92 -23 27 -30
29 -94 29 l-68 0 20 -34 c11 -19 31 -42 45 -50 13 -9 24 -21 24 -26 0 -35 -85
33 -102 80 l-10 30 -100 0 c-55 0 -97 -4 -94 -9 3 -5 0 -14 -7 -20 -10 -8 -32
-7 -83 3 -70 14 -269 15 -354 2 -100 -15 -244 -13 -344 5 -135 25 -503 27
-472 4 11 -8 17 -17 14 -21 -6 -6 -48 15 -59 29 -3 4 -100 6 -215 5 l-209 -3
23 -22 c12 -13 22 -26 22 -31 0 -7 35 -46 64 -69 8 -7 20 -20 28 -30 14 -19
40 -38 75 -53 12 -5 27 -18 33 -29 24 -46 183 -133 345 -190 88 -32 308 -91
335 -91 22 0 43 -37 25 -44 -15 -5 -141 0 -265 11 -41 4 -79 5 -84 4 -5 -1
-12 2 -15 7 -3 4 -44 14 -91 21 -47 7 -121 21 -165 33 -58 14 -85 17 -97 9
-12 -7 -18 -6 -22 4 -3 8 -14 15 -25 15 -24 0 -107 35 -115 49 -4 5 -31 22
-61 36 -30 15 -59 33 -66 41 -6 8 -18 14 -26 14 -7 0 -36 21 -64 47 l-50 46 3
86 3 86 33 14 c17 8 32 21 32 28 0 11 -105 13 -570 13 l-570 0 0 -780z m3830
740 c0 -4 -18 -2 -40 3 -22 6 -40 14 -40 18 0 4 18 2 40 -3 22 -6 40 -14 40
-18z m807 -24 c17 -11 48 -39 69 -64 29 -35 41 -42 60 -38 18 5 22 3 18 -9 -4
-10 0 -15 10 -15 9 0 16 -4 16 -9 0 -9 -94 -6 -135 4 -28 7 -179 150 -172 162
9 14 92 -6 134 -31z m-545 -17 c21 -17 37 -33 35 -36 -9 -8 -57 21 -72 44 -21
31 -11 29 37 -8z m-1062 -30 c54 -26 62 -32 47 -40 -9 -6 -15 -14 -13 -18 3
-4 -14 -6 -37 -5 -81 4 -382 -60 -356 -77 7 -4 3 -7 -12 -6 -13 0 -42 -3 -64
-7 l-40 -7 45 28 45 28 -38 6 c-48 8 -55 16 -31 34 52 41 105 64 174 75 41 6
82 13 90 15 63 12 129 3 190 -26z m-690 -44 c0 -5 -98 -53 -200 -98 -83 -37
-210 -49 -246 -23 -18 14 -18 15 10 37 47 37 123 57 244 65 62 4 128 10 145
14 43 11 47 11 47 5z m-789 -49 c7 4 9 3 5 -4 -4 -7 6 -13 28 -17 24 -5 33
-11 29 -21 -3 -9 2 -14 14 -14 23 0 56 -33 46 -45 -5 -4 1 -5 12 -1 16 6 17 5
8 -5 -10 -10 -15 -9 -27 1 -9 7 -13 17 -10 22 4 6 -1 8 -13 4 -14 -4 -34 4
-64 28 -25 18 -53 35 -63 37 -11 2 -20 12 -22 21 -2 16 0 16 22 2 12 -9 29
-12 35 -8z m3389 4 c0 -5 -4 -10 -10 -10 -5 0 -10 5 -10 10 0 6 5 10 10 10 6
0 10 -4 10 -10z m-680 -21 c30 -6 118 -15 195 -20 77 -5 185 -14 240 -18 55
-5 106 -9 113 -10 25 -2 11 -19 -22 -25 -19 -4 -48 -14 -66 -23 -22 -10 -34
-12 -39 -5 -10 16 -200 7 -267 -13 -74 -21 -195 -22 -254 -1 -63 22 -159 70
-160 79 0 14 137 6 218 -13 82 -20 213 -26 261 -13 23 6 23 7 5 14 -10 4 -44
5 -75 2 -39 -4 -84 1 -150 17 -65 16 -126 23 -196 24 -108 0 -140 12 -50 19
67 4 177 -2 247 -14z m-1241 -5 c2 -2 -3 -4 -11 -4 -20 0 -91 -67 -84 -79 3
-5 -1 -12 -10 -15 -9 -4 -14 -9 -11 -12 3 -3 34 8 68 24 60 28 140 55 145 49
6 -5 -335 -136 -424 -162 -83 -26 -96 -27 -134 -16 l-42 13 33 14 c18 8 44 14
57 14 12 0 26 5 29 10 9 14 -24 12 -79 -4 -55 -17 -76 -13 -69 14 5 17 94 50
136 50 9 0 58 15 109 34 51 19 110 37 131 40 20 4 37 12 37 18 0 7 -12 8 -32
4 -45 -8 -87 -14 -65 -9 9 2 17 9 17 14 0 6 26 9 64 7 36 -1 68 1 72 5 6 6 53
-1 63 -9z m906 -3 c-26 -11 -201 -41 -229 -40 -27 1 191 47 224 47 23 1 23 0
5 -7z m942 -14 c16 -16 16 -17 -2 -17 -42 0 -145 23 -145 32 0 18 128 4 147
-15z m38 13 c3 -5 1 -10 -4 -10 -6 0 -11 5 -11 10 0 6 2 10 4 10 3 0 8 -4 11
-10z m85 2 c0 -16 71 -31 97 -21 30 11 97 -20 130 -60 11 -14 24 -23 28 -19 4
4 -8 23 -27 42 l-35 35 40 6 c50 9 146 -3 174 -21 12 -8 41 -38 63 -68 49 -64
145 -127 257 -165 41 -15 74 -30 73 -35 -2 -12 28 -29 39 -22 5 3 11 -1 15 -9
3 -8 13 -15 22 -15 15 0 29 -5 129 -51 22 -10 52 -21 68 -24 15 -4 27 -11 27
-16 0 -27 -121 12 -255 80 -33 17 -67 31 -75 31 -26 0 73 -80 133 -107 58 -26
77 -49 32 -37 -40 10 -29 -3 21 -26 53 -23 126 -26 143 -7 16 20 121 49 161
45 46 -4 52 -32 11 -46 -40 -14 -39 -28 2 -46 40 -17 72 -52 81 -90 5 -20 10
-26 17 -19 8 8 7 18 -1 33 -6 12 -9 28 -6 36 3 9 -6 30 -19 49 -19 24 -22 34
-13 37 10 4 11 13 2 48 l-12 43 24 -26 c13 -14 28 -47 34 -73 6 -25 17 -56 25
-68 19 -26 19 -37 0 -30 -25 10 -17 -19 11 -41 25 -20 26 -24 15 -56 -7 -23
-8 -45 -2 -66 l10 -33 -35 28 c-29 23 -34 32 -32 61 2 23 -2 36 -12 39 -8 3
-12 2 -8 -2 3 -4 -2 -31 -11 -59 -13 -39 -23 -53 -40 -55 -12 -2 -19 -7 -16
-12 3 -5 -4 -15 -16 -23 -13 -10 -17 -17 -9 -22 11 -7 44 11 71 37 17 17 54 2
54 -21 0 -20 -123 -40 -184 -30 -63 10 -129 37 -145 61 -14 19 -15 19 -41 2
-15 -10 -34 -33 -42 -51 -7 -19 -18 -31 -24 -27 -6 3 -20 -3 -33 -15 -37 -35
-236 -52 -256 -21 -10 15 -120 80 -120 71 0 -5 -29 -6 -65 -3 -54 4 -69 2 -85
-13 -24 -22 -27 -10 -3 13 10 11 33 17 60 17 24 0 43 3 43 8 0 4 -15 7 -32 7
-18 0 -52 9 -76 20 -39 17 -41 21 -30 39 13 21 33 18 24 -4 -11 -30 100 -48
124 -20 7 8 17 15 23 15 5 0 2 -9 -8 -20 -15 -16 -16 -22 -5 -35 12 -14 16
-13 39 8 22 21 40 26 126 32 55 4 121 8 147 9 33 1 54 8 70 24 13 12 38 25 56
28 18 4 32 10 32 15 0 19 -80 8 -128 -17 -64 -33 -190 -52 -236 -36 -18 7 -42
12 -53 12 -37 0 -82 21 -89 42 -4 14 3 29 23 50 28 30 28 30 113 24 47 -3 123
-15 170 -27 89 -22 150 -30 150 -18 0 4 8 5 18 2 10 -2 24 3 31 11 8 9 10 16
5 17 -5 0 -53 2 -108 5 -54 2 -135 11 -178 19 -130 24 -222 18 -231 -16 -7
-25 -56 -25 -88 0 -13 10 -39 26 -58 35 l-33 18 22 15 c20 14 23 13 44 -6 25
-24 52 -27 60 -8 3 6 4 3 3 -8 -1 -11 5 -21 16 -23 10 -2 17 3 17 11 0 18 30
27 87 27 23 0 45 5 48 10 4 6 10 8 14 6 4 -3 36 -6 72 -7 36 -1 83 -10 109
-22 60 -25 162 -40 172 -25 11 19 -1 28 -35 28 -18 0 -64 13 -104 29 -98 40
-147 46 -207 26 -78 -27 -146 -2 -181 65 -26 51 -16 55 28 13 47 -46 80 -58
132 -49 51 10 43 26 -14 26 -46 0 -52 3 -89 45 -22 25 -60 54 -86 65 -25 12
-46 25 -46 30 0 29 132 -10 196 -57 17 -13 36 -23 41 -23 6 0 16 -7 23 -15 7
-8 22 -15 34 -15 20 -1 20 -1 2 -15 -17 -13 -17 -15 -3 -21 10 -3 24 -3 32 0
9 3 23 1 33 -4 25 -14 217 -70 239 -70 24 0 43 -19 43 -41 0 -29 21 -34 40 -9
17 23 36 15 21 -9 -11 -17 51 -111 85 -129 38 -20 43 -5 9 24 l-30 25 35 -5
c19 -2 49 -7 65 -11 41 -8 95 25 95 59 0 31 -13 40 -85 62 -76 22 -83 29 -61
53 31 34 1 31 -35 -3 l-34 -33 -58 12 c-31 6 -71 21 -87 33 -16 12 -32 22 -35
22 -19 0 -72 47 -69 63 1 9 -2 15 -7 11 -5 -3 -9 0 -9 5 0 6 -6 11 -14 11 -7
0 -71 36 -142 81 -165 103 -184 113 -196 101 -6 -6 36 -37 116 -87 69 -42 128
-81 131 -85 3 -5 18 -11 35 -15 33 -7 119 -79 108 -91 -5 -4 -16 0 -25 8 -10
8 -37 18 -61 22 -24 4 -55 15 -70 24 -15 10 -41 28 -59 40 -18 12 -36 22 -41
22 -5 0 -42 23 -82 51 -87 61 -141 73 -187 42 -15 -11 -43 -26 -60 -34 -18 -8
-33 -19 -33 -26 0 -15 -55 -7 -87 13 -48 30 -124 3 -207 -76 -58 -55 -78 -60
-134 -31 -20 10 -52 22 -69 26 -33 7 -36 10 -37 55 -1 14 -6 24 -13 23 -6 -1
-10 5 -9 15 2 9 9 17 17 17 8 0 14 7 14 15 0 8 -6 14 -12 13 -7 -2 -13 3 -13
10 0 7 -7 4 -15 -7 -8 -11 -15 -16 -15 -10 0 15 16 35 26 33 5 -1 22 3 37 9
24 10 32 9 56 -9 35 -26 114 -37 136 -19 20 16 19 34 -1 26 -8 -3 -12 -2 -9 3
3 5 21 15 40 21 29 10 44 8 93 -8 47 -16 74 -19 161 -14 60 3 115 11 130 19
23 12 12 13 -94 7 -148 -8 -178 2 -230 75 -28 39 -52 58 -101 81 -65 31 -74
38 -51 37 54 -2 97 4 92 13 -4 6 -1 17 5 25 13 16 40 20 40 7z m82 -14 c-5 -5
-17 -6 -26 -2 -13 5 -14 9 -5 14 16 11 43 0 31 -12z m-1439 -35 c-7 -2 -21 -2
-30 0 -10 3 -4 5 12 5 17 0 24 -2 18 -5z m-255 -19 c43 -7 59 -24 21 -24 -11
0 -17 -4 -14 -10 4 -6 -23 -10 -72 -11 -43 0 -91 -2 -108 -3 -97 -11 -135 -9
-135 5 0 19 68 39 132 39 35 0 70 5 78 10 8 6 24 8 35 6 11 -3 39 -8 63 -12z
m-1648 -34 c0 -5 -7 -7 -15 -4 -8 4 -15 8 -15 10 0 2 7 4 15 4 8 0 15 -4 15
-10z m2865 -11 c6 -4 27 -9 47 -13 38 -7 68 -36 68 -66 0 -9 -10 -26 -23 -38
-25 -23 -102 -54 -111 -45 -3 4 -6 -1 -6 -10 0 -30 -40 -47 -110 -46 -36 1
-51 4 -35 5 61 8 135 27 135 37 0 6 -14 6 -37 1 -21 -5 -62 -9 -91 -9 -40 0
-51 -3 -47 -14 4 -10 0 -10 -17 2 -57 40 -110 66 -150 71 -53 8 -74 26 -60 53
9 16 29 21 124 31 62 7 145 20 183 30 71 18 112 22 130 11z m150 -9 c-3 -5
-13 -10 -21 -10 -8 0 -12 5 -9 10 3 6 13 10 21 10 8 0 12 -4 9 -10z m-3865
-41 c220 -48 358 -82 410 -99 139 -46 223 -66 430 -101 30 -5 125 -14 211 -19
100 -6 170 -15 194 -26 l38 -16 -29 -19 c-72 -47 -275 -89 -433 -89 -107 0
-278 35 -310 64 -9 9 -21 16 -24 16 -4 0 -31 16 -62 35 -51 33 -175 95 -190
95 -3 0 -30 11 -58 24 -80 38 -364 96 -469 96 -87 0 -117 13 -58 24 99 19 96
18 75 27 -47 18 182 9 275 -12z m3175 -1 c6 -6 -19 -9 -73 -7 -45 1 -85 -1
-89 -5 -3 -3 2 -6 13 -6 15 -1 16 -2 4 -9 -21 -12 -205 -20 -265 -13 -85 12
-34 23 105 24 72 1 130 5 130 10 0 4 -9 8 -21 8 -12 0 -17 4 -13 11 8 14 194
2 209 -13z m75 13 c0 -5 -7 -12 -16 -15 -8 -3 -12 -2 -9 3 3 5 -3 12 -12 14
-11 3 -8 5 10 6 15 0 27 -3 27 -8z m-3700 -21 c-8 -5 -26 -9 -40 -9 -23 1 -23
2 5 9 43 11 52 11 35 0z m3163 -61 c34 -5 96 -9 137 -9 l75 -1 -40 -22 c-35
-19 -54 -22 -155 -21 -105 1 -125 4 -225 38 l-110 37 128 -7 c70 -3 155 -10
190 -15z m-363 -12 c25 -5 50 -14 55 -20 7 -7 4 -8 -9 -3 -21 7 -181 24 -286
29 -36 2 -7 4 65 4 71 0 150 -5 175 -10z m-1675 -27 l20 -9 -20 0 c-11 0 -27
4 -35 9 -13 9 -13 10 0 9 8 0 24 -4 35 -9z m1808 -10 c5 -4 -3 -5 -17 -3 -15
3 -29 10 -32 15 -7 11 36 1 49 -12z m-1749 -9 c4 -5 -3 -7 -14 -4 -23 6 -26
13 -6 13 8 0 17 -4 20 -9z m1816 -31 c19 -6 52 -11 73 -12 20 0 37 -2 37 -4 0
-2 -35 -20 -77 -40 -43 -20 -85 -42 -93 -49 -18 -15 -107 -45 -129 -44 -9 0
-3 7 14 15 26 13 27 14 5 10 -14 -3 -51 -6 -83 -6 -32 0 -56 -4 -53 -8 3 -5
-9 -9 -26 -10 -17 0 -48 -4 -69 -7 -23 -4 -39 -3 -39 3 0 6 -80 9 -212 8 -179
-2 -226 -5 -294 -23 -44 -11 -94 -28 -110 -36 -17 -8 -59 -23 -94 -32 -36 -9
-114 -37 -175 -62 -162 -67 -272 -103 -344 -113 -76 -10 -401 4 -428 19 -10 5
-91 12 -178 14 -146 4 -173 2 -314 -25 -85 -16 -166 -35 -181 -43 -15 -8 -51
-17 -81 -21 -39 -5 -97 -29 -207 -86 -166 -85 -195 -90 -54 -9 149 85 307 146
482 187 92 21 129 24 305 24 125 0 234 -5 290 -14 153 -25 340 -30 421 -13 75
16 156 52 213 95 31 23 46 28 89 31 7 1 11 5 7 11 -7 12 35 39 70 46 15 3 55
19 89 36 145 73 386 139 613 168 92 12 489 4 533 -10z m-1593 4 c-3 -3 -12 -4
-19 -1 -8 3 -5 6 6 6 11 1 17 -2 13 -5z m2107 -46 c-4 -7 -18 -26 -30 -43 -28
-39 -85 -162 -113 -245 -21 -66 -58 -136 -67 -128 -2 3 9 35 26 71 16 37 30
74 30 83 0 8 18 62 41 120 30 77 48 110 72 129 35 27 53 32 41 13z m1399 -19
c36 -10 41 -16 37 -52 -1 -10 17 -43 40 -73 34 -45 38 -55 25 -60 -9 -4 -29 3
-46 15 -16 12 -39 25 -52 30 -18 7 -26 20 -31 51 -4 24 -17 52 -31 66 -14 14
-25 27 -25 29 0 8 44 5 83 -6z m-1033 -32 c0 -7 -6 -19 -12 -26 -10 -11 -10
-14 0 -18 6 -3 12 -9 12 -13 0 -5 11 -26 25 -46 28 -42 32 -88 10 -111 -8 -8
-12 -19 -9 -25 4 -6 2 -8 -4 -4 -6 3 -21 -8 -33 -26 -13 -18 -40 -53 -61 -77
-67 -77 -139 -263 -164 -421 -12 -74 -6 -230 12 -305 19 -86 122 -300 198
-415 l57 -85 -56 60 c-31 33 -71 83 -90 110 -40 59 -106 200 -98 209 4 3 1 6
-5 6 -6 0 -18 26 -27 58 -9 31 -23 77 -31 102 -8 27 -16 114 -20 215 l-6 170
47 130 c25 72 55 177 67 235 25 134 68 224 123 262 44 30 65 35 65 15z m883
-4 c-7 -2 -19 -2 -25 0 -7 3 -2 5 12 5 14 0 19 -2 13 -5z m-163 -6 c0 -2 -14
-16 -31 -33 -26 -24 -30 -25 -20 -7 11 22 51 53 51 40z m-530 -24 c11 -10 20
-21 20 -25 0 -13 -18 -9 -34 8 -15 15 -21 34 -11 34 3 0 14 -8 25 -17z m-386
-79 c-14 -43 -30 -107 -35 -142 -9 -64 -74 -222 -91 -222 -5 0 -6 5 -3 10 3 6
4 10 0 10 -3 0 -14 -19 -24 -43 -10 -24 -34 -56 -52 -72 -38 -32 -125 -75
-151 -75 -10 0 -18 -7 -18 -15 0 -8 -7 -15 -15 -15 -8 0 -15 -4 -15 -10 0 -5
27 -12 60 -16 33 -4 60 -11 60 -16 0 -16 -52 -63 -105 -94 -48 -28 -54 -29
-175 -28 -133 1 -200 14 -323 62 -38 15 -80 37 -93 49 -14 13 -29 23 -34 23
-4 0 -53 37 -107 83 -146 122 -172 140 -243 170 -119 49 -199 57 -375 37 -134
-16 -195 -18 -195 -9 0 5 -18 7 -40 4 -22 -3 -40 -3 -40 -1 0 3 21 18 46 35
62 42 156 73 231 76 116 5 208 18 218 30 29 37 380 111 480 102 28 -3 84 -10
125 -17 43 -7 105 -9 144 -6 114 10 281 76 352 139 l36 30 -7 -39 c-4 -21 -14
-50 -22 -63 -8 -12 -13 -31 -10 -41 15 -57 -67 -239 -129 -287 -48 -36 -118
-41 -174 -12 -39 21 -58 24 -150 23 -58 0 -157 -5 -220 -10 -75 -7 -119 -7
-128 -1 -15 12 -27 3 -17 -12 8 -14 109 -14 275 1 l135 11 103 -42 102 -42
162 10 c153 10 163 12 207 40 90 58 178 171 158 202 -7 12 -4 22 11 37 12 12
22 29 22 36 0 8 15 46 34 83 18 37 37 78 41 91 4 13 9 22 11 19 2 -2 -8 -39
-22 -83z m1141 76 c3 -5 1 -10 -4 -10 -6 0 -11 5 -11 10 0 6 2 10 4 10 3 0 8
-4 11 -10z m-1482 -62 c-25 -49 -45 -15 -21 36 10 23 12 24 23 9 9 -13 9 -22
-2 -45z m270 50 c2 -7 0 -24 -5 -37 -5 -14 -6 -31 -3 -40 3 -8 3 -12 -1 -8 -4
4 -17 -15 -29 -43 -22 -52 -92 -137 -108 -132 -5 1 -15 -5 -23 -15 -30 -40
-11 6 26 62 22 33 40 54 40 47 0 -7 5 -10 11 -7 6 4 8 13 5 21 -8 21 14 63 30
57 17 -6 18 1 2 26 -9 15 -7 24 11 50 24 33 37 39 44 19z m1238 -47 c33 -34
36 -43 12 -34 -26 9 -53 34 -53 50 0 19 8 16 41 -16z m-2098 12 c-7 -2 -19 -2
-25 0 -7 3 -2 5 12 5 14 0 19 -2 13 -5z m-240 -10 c-7 -2 -19 -2 -25 0 -7 3
-2 5 12 5 14 0 19 -2 13 -5z m-2185 -20 c-10 -2 -26 -2 -35 0 -10 3 -2 5 17 5
19 0 27 -2 18 -5z m4086 -28 c-4 -8 3 -15 18 -17 13 -2 18 -6 12 -10 -6 -4
-21 -1 -35 6 -13 7 -29 11 -36 9 -12 -4 -26 24 -18 37 9 14 64 -10 59 -25z
m-4272 -1 c-29 -15 -64 -24 -80 -22 -26 4 -25 5 18 26 25 12 61 21 80 21 l35
-1 -53 -24z m4068 -6 c11 -18 20 -39 20 -46 0 -25 55 -85 95 -103 64 -29 74
-25 146 53 61 67 68 71 110 73 45 2 118 -18 154 -42 11 -7 31 -13 46 -13 15 0
32 -7 39 -15 7 -8 23 -15 36 -15 43 0 51 -39 20 -103 -30 -64 -31 -72 -11
-110 15 -30 12 -52 -11 -61 -8 -3 -14 -16 -14 -30 0 -20 -11 -30 -62 -56 -35
-18 -70 -38 -79 -46 -28 -25 -145 -38 -209 -24 -85 19 -195 68 -224 100 -14
16 -41 60 -60 97 -19 38 -44 78 -56 90 -11 12 -19 26 -18 30 3 15 -14 153 -19
153 -3 0 -12 -8 -19 -17 -12 -16 -13 -15 -14 13 0 17 7 37 15 44 12 10 15 10
15 -4 0 -29 18 -17 34 24 19 49 40 51 66 8z m265 13 c-3 -6 -14 -11 -23 -11
-15 1 -15 2 2 15 21 16 32 13 21 -4z m1405 -1 c0 -5 -2 -10 -4 -10 -3 0 -8 5
-11 10 -3 6 -1 10 4 10 6 0 11 -4 11 -10z m-98 -74 c14 -20 -22 -18 -48 3
l-27 21 34 -7 c19 -3 37 -11 41 -17z m-1787 -151 c7 -98 6 -108 -19 -170 -43
-107 -65 -200 -78 -331 -18 -190 -2 -264 113 -513 82 -177 105 -235 122 -309
6 -23 5 -24 -15 -5 -55 49 -168 236 -241 400 -24 54 -51 156 -71 273 -16 91
-16 302 0 411 8 61 14 113 11 115 -2 3 -8 -12 -12 -33 -4 -21 -11 -41 -17 -44
-15 -10 -20 -71 -22 -266 -1 -100 -5 -186 -9 -190 -4 -4 -5 20 -2 53 3 38 2
52 -4 39 -14 -32 -6 322 9 388 7 31 17 57 21 57 5 0 6 6 4 13 -3 6 5 28 16 47
20 32 23 33 30 15 4 -11 8 -15 8 -10 1 6 12 24 26 40 86 102 107 125 115 125
4 0 11 -47 15 -105z m104 -14 c19 -96 73 -190 150 -259 20 -18 21 -21 6 -13
-27 12 -105 96 -137 147 -15 22 -30 67 -36 104 -19 117 -5 134 17 21z m-557
22 c-32 -44 -85 -87 -112 -91 -21 -2 -19 1 16 25 22 15 56 45 74 66 37 43 53
43 22 0z m1387 -57 c9 -10 8 -16 -4 -26 -18 -15 -20 -13 -29 18 -8 25 14 31
33 8z m1096 -16 c-10 -11 -20 -18 -23 -15 -3 3 3 14 13 25 10 11 20 18 23 15
3 -3 -3 -14 -13 -25z m-3724 -59 c31 -12 82 -41 115 -65 32 -25 62 -42 65 -40
4 2 10 -3 13 -12 3 -8 10 -13 15 -10 5 3 16 -6 25 -19 20 -31 203 -168 226
-170 24 -2 91 -44 119 -74 13 -14 20 -20 17 -14 -5 9 -2 11 8 7 9 -3 13 -11 9
-17 -4 -6 0 -8 11 -4 10 4 15 3 11 -3 -4 -6 16 -21 44 -34 28 -12 57 -28 65
-35 8 -7 61 -21 118 -31 57 -10 126 -27 153 -38 l50 -20 -35 -16 c-19 -9 -66
-43 -103 -75 -87 -76 -183 -127 -220 -117 -15 3 -27 13 -27 21 0 8 -8 15 -18
15 -57 0 -209 86 -309 173 -26 24 -84 69 -128 102 -44 32 -111 89 -150 125
-70 66 -157 123 -207 135 -14 4 -36 18 -49 31 -25 27 -61 35 -39 9 14 -17 8
-18 -39 -9 -34 7 -42 24 -11 24 11 0 20 4 20 9 0 5 -25 11 -55 13 -43 4 -62
11 -85 33 -27 26 -33 27 -85 21 -30 -3 -55 -4 -55 -2 0 14 79 48 165 70 194
50 268 53 366 17z m1284 -18 c-64 -112 -138 -173 -216 -180 -53 -5 -49 10 9
32 26 10 63 28 82 40 43 27 108 97 120 131 5 13 15 24 21 24 6 0 -1 -21 -16
-47z m2153 32 c29 -2 57 -7 63 -10 17 -11 -23 -34 -59 -35 -18 0 -43 -5 -55
-11 l-22 -12 20 23 20 22 -32 -6 c-18 -3 -46 -9 -62 -12 -27 -5 -29 -3 -24 18
9 32 22 39 63 33 19 -3 59 -7 88 -10z m-831 -38 c-3 -27 -30 -79 -50 -96 -13
-10 -13 -6 0 31 8 24 19 47 24 53 5 5 9 17 9 28 0 10 4 16 9 12 6 -3 9 -15 8
-28z m223 8 c8 -7 30 -18 48 -26 17 -8 32 -17 32 -21 0 -11 -18 -10 -25 2 -3
6 -19 10 -34 10 -18 0 -40 11 -60 30 l-31 30 27 -6 c16 -4 35 -12 43 -19z
m485 -25 c-3 -5 -12 -10 -18 -10 -7 0 -6 4 3 10 19 12 23 12 15 0z m-1560
-108 c-3 -13 -2 -29 4 -35 6 -8 1 -38 -14 -86 -13 -40 -27 -92 -30 -115 -8
-50 -63 -267 -69 -274 -11 -11 -18 104 -13 213 8 156 44 309 76 330 6 3 8 12
5 20 -3 7 0 24 7 36 12 22 12 22 26 -21 7 -25 11 -56 8 -68z m1395 98 c0 -5
-9 -10 -20 -10 -11 0 -20 5 -20 10 0 6 9 10 20 10 11 0 20 -4 20 -10z m-3760
-19 c0 -5 -7 -14 -15 -21 -14 -11 -13 -14 1 -25 14 -10 2 -14 -74 -24 -50 -6
-98 -14 -106 -17 -8 -3 -17 -1 -21 5 -4 7 4 11 19 11 14 0 28 5 31 10 3 6 21
10 40 10 45 0 65 9 65 29 0 10 3 21 7 24 9 10 53 8 53 -2z m3620 -10 c0 -12
-78 -29 -165 -35 -90 -7 -72 1 57 24 57 10 104 19 106 19 1 1 2 -3 2 -8z
m-3417 -45 c9 -7 17 -16 17 -20 0 -7 -73 0 -120 11 -25 6 -25 6 5 13 47 12 79
10 98 -4z m2245 -12 c51 -35 67 -125 36 -199 -11 -27 -13 -52 -9 -90 5 -34 3
-55 -4 -59 -13 -9 -6 -139 9 -144 5 -2 7 -8 4 -13 -3 -6 -1 -15 4 -22 9 -11
26 -70 27 -92 0 -5 3 -12 6 -15 3 -3 20 -48 38 -100 18 -52 60 -150 92 -218
57 -119 77 -182 44 -138 -15 20 -15 20 -15 0 0 -14 -4 -11 -16 12 -21 43 -84
104 -84 81 0 -9 -5 -17 -11 -17 -6 0 -9 9 -6 20 3 10 -1 27 -9 37 -12 16 -13
13 -8 -27 3 -25 7 -55 10 -67 2 -13 0 -23 -5 -23 -5 0 -12 10 -14 23 -3 17 -5
16 -6 -8 -2 -41 -12 -75 -21 -75 -8 0 -61 132 -74 183 -5 23 -59 136 -121 256
-10 18 -22 66 -28 105 -10 66 -8 82 22 206 47 194 93 331 109 325 9 -3 10 0 2
15 -12 22 -13 60 -2 60 4 0 18 -7 30 -16z m-596 -21 c-5 -10 -8 -26 -7 -35 2
-10 -3 -18 -10 -18 -8 0 -23 -12 -34 -27 -31 -38 -35 -23 -6 20 14 20 25 39
25 43 0 11 32 45 37 40 3 -2 0 -13 -5 -23z m-2672 -21 c0 -5 22 -9 48 -11 27
-1 62 -6 78 -11 22 -7 15 -7 -26 -3 -81 8 -54 -7 37 -21 l78 -13 -175 -1
c-187 -1 -270 -15 -375 -63 -72 -33 -72 -33 -54 -15 15 17 27 24 129 79 82 45
260 85 260 59z m760 -6 c-30 -7 -77 -21 -105 -30 -32 -11 -51 -14 -53 -7 -2 6
-13 9 -25 6 -40 -9 -96 -12 -92 -5 8 12 217 47 290 47 38 1 37 0 -15 -11z
m280 -6 c3 -1 9 -2 13 -1 4 1 34 -6 65 -15 188 -52 292 -109 434 -236 42 -37
81 -68 88 -68 6 0 33 -21 61 -47 48 -45 88 -72 207 -143 32 -20 50 -36 45 -43
-3 -7 -3 -9 1 -5 6 5 131 -44 145 -57 2 -3 -15 -25 -38 -50 -106 -115 -153
-342 -102 -487 37 -106 55 -198 41 -211 -10 -9 -14 -9 -17 0 -3 7 -15 10 -31
7 -39 -8 -90 45 -152 157 -35 64 -38 60 -9 -13 21 -54 31 -88 24 -88 -5 0 -47
74 -50 90 -2 8 -4 16 -5 18 -2 1 -3 5 -4 10 -1 4 -4 12 -7 17 -4 6 -21 46 -40
90 -54 134 -119 221 -182 244 -43 16 -108 13 -129 -6 -17 -15 -19 -15 -38 2
-12 11 -20 31 -20 50 0 45 -25 101 -48 107 -23 6 -75 -14 -117 -46 -52 -39
-169 -97 -142 -69 4 3 -1 12 -11 20 -16 13 -15 14 4 8 13 -3 26 1 35 11 13 16
11 17 -13 11 -21 -6 -30 -3 -37 11 -9 17 -7 116 4 187 2 17 7 64 11 105 6 69
4 80 -20 127 -16 32 -22 54 -16 58 16 10 49 -76 53 -136 2 -30 -2 -110 -10
-178 -8 -68 -12 -125 -9 -128 2 -3 14 -2 27 2 12 4 17 10 12 14 -12 7 -12 322
0 314 20 -12 -8 88 -40 139 -13 21 -23 44 -23 53 0 8 -4 15 -8 15 -17 0 -72
57 -72 75 0 16 -6 17 -57 11 -53 -5 -56 -4 -39 9 11 8 24 15 30 15 5 0 7 2 4
5 -9 10 -147 -43 -224 -85 -40 -22 -86 -40 -102 -40 -16 0 -37 -9 -47 -20 -10
-11 -21 -18 -24 -15 -2 3 -27 -16 -55 -42 l-50 -48 59 68 c125 145 205 183
444 206 57 5 109 15 115 21 8 8 44 8 66 0z m1550 -31 c-12 -16 -25 -28 -28
-25 -5 6 36 56 45 56 3 0 -5 -14 -17 -31z m269 -249 c14 -100 50 -232 62 -224
5 3 6 -1 4 -9 -3 -7 4 -24 15 -37 12 -14 19 -32 17 -42 -3 -10 -1 -16 3 -13
13 8 23 -14 22 -46 0 -16 4 -29 9 -29 5 0 9 -7 9 -16 0 -9 -5 -12 -12 -8 -10
6 -10 4 0 -7 6 -7 12 -22 12 -33 0 -20 -2 -19 -20 4 -33 43 -119 224 -135 286
-21 81 -29 221 -19 329 l8 90 7 -80 c4 -44 12 -118 18 -165z m815 189 c-6 -10
-54 -8 -54 2 0 5 13 8 29 7 16 -1 28 -5 25 -9z m-3405 -57 c-19 -21 -40 -47
-47 -58 -11 -16 -11 -15 -1 6 11 23 68 90 77 90 2 0 -11 -17 -29 -38z m3131
23 c-7 -9 -15 -13 -17 -11 -7 7 7 26 19 26 6 0 6 -6 -2 -15z m265 -24 c-4 -17
-11 -31 -17 -31 -7 0 -7 -5 1 -13 6 -8 8 -16 5 -20 -10 -10 -12 -62 -3 -78 5
-9 10 -31 11 -48 1 -17 6 -31 11 -31 4 0 6 -4 3 -9 -3 -4 1 -17 9 -27 8 -10
14 -23 15 -29 0 -5 -5 -3 -10 5 -12 19 -13 8 -1 -22 16 -40 24 -63 27 -77 1
-8 5 -26 9 -39 3 -13 2 -21 -3 -18 -6 3 -13 21 -16 40 -4 19 -10 36 -14 38 -4
2 -29 40 -55 86 -51 87 -76 186 -46 180 9 -2 14 6 15 22 2 69 6 104 11 93 7
-18 32 -16 40 2 9 26 15 9 8 -24z m-3537 5 c-52 -22 -214 -102 -317 -157 -48
-26 -135 -112 -177 -174 -15 -22 -37 -52 -50 -68 -13 -15 -48 -69 -79 -120
-81 -133 -110 -172 -113 -155 -3 13 25 84 91 233 56 127 190 266 340 354 153
90 207 111 292 110 l70 0 -57 -23z m282 6 c0 -4 -19 -37 -42 -73 -42 -64 -83
-157 -74 -167 3 -2 -1 -17 -9 -33 -8 -15 -15 -36 -15 -45 0 -13 3 -14 15 -4 8
7 15 9 15 5 0 -17 -54 -170 -61 -173 -4 -2 -5 -20 -2 -40 5 -37 5 -37 -12 -14
-11 14 -18 49 -21 95 -3 40 -7 85 -9 100 -3 15 4 56 15 90 12 34 26 78 32 97
15 50 62 110 110 142 42 29 58 34 58 20z m2260 -49 c0 -27 -5 -66 -11 -87 -10
-35 -12 -37 -21 -22 -7 13 -7 30 1 56 6 20 11 51 11 69 0 17 5 31 10 31 6 0
10 -21 10 -47z m821 25 c1 -7 0 -25 -1 -39 -1 -29 23 -95 45 -119 17 -19 76
-124 115 -207 33 -69 70 -224 70 -294 0 -42 25 -193 50 -297 6 -24 8 -48 4
-53 -3 -5 -1 -16 5 -23 12 -15 17 -161 6 -195 -4 -13 -27 -55 -52 -92 -24 -38
-50 -87 -58 -110 -17 -46 -20 -119 -6 -119 5 0 11 -6 14 -12 2 -7 3 -4 1 8 -7
41 23 122 73 200 27 44 55 94 61 113 14 41 16 190 2 240 -33 126 -59 267 -61
336 0 44 -5 103 -11 130 -13 72 -19 163 -9 145 13 -23 30 -108 36 -185 6 -73
31 -136 71 -185 13 -15 22 -35 18 -43 -3 -8 -1 -18 5 -22 7 -4 8 0 4 12 -4 9
32 -16 80 -56 98 -83 127 -130 152 -251 12 -59 14 -89 6 -140 -12 -74 -41
-166 -66 -203 -19 -30 -124 -111 -132 -103 -3 3 22 47 56 98 33 50 61 100 61
110 0 10 4 18 10 18 5 0 7 13 3 31 -5 29 -4 31 16 24 15 -5 21 -2 21 9 0 9 -7
16 -15 16 -18 0 -19 14 -4 42 7 13 8 23 1 27 -5 3 -13 26 -17 51 -9 55 -50
164 -78 210 -12 19 -21 38 -19 43 1 4 -5 7 -13 7 -20 0 -19 -4 10 -56 14 -25
23 -50 19 -55 -3 -5 0 -8 7 -7 6 2 14 -3 16 -10 10 -26 -32 -7 -55 26 -12 17
-25 32 -29 32 -3 0 1 -8 8 -17 13 -17 12 -17 -5 -3 -18 14 -68 111 -60 119 7
7 34 -21 28 -30 -9 -15 7 -10 24 8 16 16 16 16 0 10 -10 -3 -18 -2 -18 3 0 5
-11 12 -24 16 -25 6 -36 29 -36 76 0 31 -17 47 -26 24 -11 -28 28 -146 82
-251 81 -157 94 -204 83 -309 -8 -79 -16 -102 -85 -247 -41 -87 -78 -175 -81
-195 -3 -19 -9 -32 -13 -27 -19 21 -40 113 -37 170 2 52 5 63 20 63 9 0 17 1
17 3 0 1 15 47 34 102 36 103 55 205 40 205 -5 0 -15 -18 -21 -39 -7 -22 -26
-61 -43 -88 -57 -92 -91 -166 -80 -177 12 -12 13 -76 1 -76 -5 0 -11 -9 -14
-19 -3 -12 0 -18 7 -15 7 3 11 -12 11 -43 0 -27 4 -64 8 -83 l8 -35 -18 23
c-58 77 -85 100 -128 112 -69 19 -173 7 -293 -34 -114 -40 -129 -42 -176 -22
-25 10 -107 66 -134 91 -2 2 -8 21 -12 42 -11 48 1 104 40 187 17 34 30 76 30
91 0 59 -39 114 -134 189 -86 69 -166 153 -166 174 0 5 -7 15 -15 22 -13 11
-14 10 -8 -6 17 -47 126 -174 149 -174 15 0 110 -103 128 -139 20 -37 14 -96
-16 -166 -15 -33 -32 -88 -39 -121 -11 -55 -10 -67 5 -108 19 -51 78 -106 112
-106 20 0 52 -26 43 -34 -2 -2 -26 -15 -54 -30 -72 -38 -165 -37 -275 4 -45
16 -98 30 -118 30 -21 0 -50 9 -67 20 -16 12 -65 39 -108 62 -131 68 -223 202
-291 421 -42 133 -81 225 -132 309 -43 71 -65 144 -65 217 0 41 9 72 38 133
43 93 93 140 171 163 27 8 55 22 62 30 7 8 33 24 58 35 24 11 62 36 83 55 52
46 106 73 168 81 38 5 51 3 51 -6 0 -17 -44 -93 -91 -155 -86 -115 -159 -289
-159 -379 0 -61 50 -155 110 -209 29 -26 78 -56 117 -72 93 -36 223 -108 249
-137 49 -53 57 -109 25 -168 -48 -86 -75 -180 -51 -180 5 0 10 15 11 33 0 37
31 119 47 125 6 2 12 -5 15 -15 6 -29 28 32 34 98 5 50 2 61 -19 90 -14 19
-23 40 -21 47 3 7 -5 12 -21 12 -13 0 -27 4 -30 8 -3 5 -35 26 -71 48 -83 48
-193 162 -231 240 -26 53 -29 68 -28 154 1 82 6 109 37 195 20 55 36 98 37 95
0 -3 2 -48 5 -100 4 -99 27 -200 69 -293 13 -30 29 -58 35 -62 7 -4 5 9 -5 32
-32 74 -46 129 -60 242 -8 63 -13 116 -11 118 3 2 14 -21 27 -51 30 -75 156
-196 260 -250 133 -70 362 -233 399 -285 11 -16 30 -51 42 -77 21 -49 22 -102
3 -201 -9 -50 10 -39 26 15 38 120 11 200 -108 324 -59 61 -231 185 -327 236
-22 12 -51 31 -65 42 l-25 22 30 -15 c32 -17 92 -37 107 -37 5 0 6 5 3 10 -14
23 52 -4 115 -46 229 -153 321 -293 305 -463 -4 -41 -13 -85 -21 -96 -8 -11
-14 -28 -14 -38 0 -14 -5 -17 -20 -12 -11 4 -20 2 -20 -4 0 -6 5 -11 10 -11 6
0 10 -12 11 -27 0 -20 11 -37 41 -60 56 -45 83 -43 30 3 -43 37 -50 60 -31 96
20 36 38 130 39 193 0 46 3 56 12 47 14 -14 16 -112 4 -217 -7 -58 -5 -77 10
-112 19 -44 41 -59 104 -69 22 -4 49 -17 61 -30 22 -23 49 -32 49 -16 0 5 -14
21 -31 38 -40 37 -79 123 -79 172 0 20 7 61 14 90 19 69 31 182 20 182 -15 -1
-46 -80 -60 -154 -21 -106 -18 -154 12 -210 14 -26 23 -50 20 -54 -10 -9 -67
51 -83 86 -12 30 -12 40 2 89 26 89 22 141 -19 231 -20 44 -36 88 -36 99 0 10
-4 23 -10 29 -5 5 -6 30 -2 58 l7 48 48 -62 c26 -34 53 -72 59 -86 17 -36 31
-29 25 12 -4 20 -33 74 -68 126 -33 49 -58 92 -54 96 8 8 36 -28 30 -38 -6
-10 64 -90 79 -90 6 0 13 -10 13 -22 2 -27 33 -52 46 -39 13 13 11 95 -2 99
-6 2 -13 19 -17 38 -3 19 -11 34 -16 34 -5 0 -9 10 -8 23 1 12 1 27 0 32 -1 6
-3 15 -4 20 -1 6 -11 30 -23 55 -39 80 -85 184 -105 235 -65 164 -68 176 -67
264 1 114 19 159 83 209 33 25 46 28 47 10z m-931 -33 c19 -23 6 -40 -47 -66
-41 -20 -63 -24 -150 -24 -139 0 -155 18 -31 35 87 11 158 36 173 60 9 15 41
12 55 -5z m73 -5 c-3 -11 -10 -23 -16 -27 -5 -3 -8 -2 -5 3 3 5 8 17 11 27 9
24 16 22 10 -3z m-2437 -58 c-12 -24 -20 -57 -41 -182 -12 -69 0 -205 15 -180
9 14 9 13 25 -64 3 -14 1 -28 -5 -31 -14 -9 -13 -26 2 -23 6 2 15 -13 19 -32
8 -45 25 -86 38 -94 5 -3 12 -24 16 -46 5 -31 11 -40 27 -40 12 0 22 9 26 23
5 15 9 1 13 -43 7 -80 9 -87 36 -117 22 -25 54 -107 59 -151 1 -13 9 -31 17
-40 8 -10 18 -30 21 -47 7 -28 6 -29 -11 -14 -10 8 -36 21 -59 28 -110 35
-222 155 -281 301 -15 39 -33 68 -39 66 -13 -5 -24 66 -24 151 0 55 49 306 77
388 21 64 70 175 78 175 3 0 -1 -12 -9 -28z m310 -44 c-2 -24 -51 -138 -64
-148 -4 -3 -16 -18 -27 -34 -45 -66 -64 -102 -65 -123 0 -12 -5 -25 -10 -28
-7 -4 -9 4 -5 22 3 15 10 57 16 93 17 110 74 210 120 210 9 0 19 7 23 15 8 22
13 18 12 -7z m2399 -69 c-5 -22 -4 -29 4 -25 7 5 11 -2 11 -18 0 -14 -4 -27
-9 -30 -11 -7 -23 67 -15 88 10 27 16 18 9 -15z m-190 -34 c12 -86 127 -324
193 -397 37 -41 35 -59 -6 -54 -29 3 -72 26 -72 38 0 5 -6 8 -14 8 -13 0 -26
20 -25 37 1 3 -6 10 -15 15 -9 5 -16 19 -16 32 0 27 -47 116 -61 116 -13 0
-12 -4 16 -62 29 -61 27 -74 -5 -24 -12 20 -23 36 -25 36 -8 0 19 -66 33 -82
8 -10 10 -18 5 -18 -17 0 -40 42 -49 90 -8 39 -2 216 9 260 7 31 19 61 22 58
2 -2 7 -26 10 -53z m588 25 c3 -11 1 -18 -4 -14 -5 3 -9 12 -9 20 0 20 7 17
13 -6z m-3713 -20 c-6 -10 -18 -25 -28 -32 -37 -26 -127 -182 -152 -263 -17
-55 -44 -104 -74 -139 -14 -16 -26 -34 -26 -39 0 -6 -3 -8 -6 -5 -13 14 97
266 148 340 10 14 18 32 18 40 0 20 107 131 119 123 8 -4 8 -12 1 -25z m150
16 c0 -2 -8 -10 -17 -17 -16 -13 -17 -12 -4 4 13 16 21 21 21 13z m102 -59
c-12 -13 -22 -28 -22 -34 0 -11 -29 -40 -45 -45 -5 -2 -9 -7 -7 -11 1 -5 -25
-43 -59 -85 -34 -42 -72 -93 -85 -113 -24 -39 -44 -57 -44 -40 0 5 25 53 56
105 55 93 140 194 193 228 35 24 39 22 13 -5z m3080 -29 c-7 -7 -12 -8 -12 -2
0 6 3 14 7 17 3 4 9 5 12 2 2 -3 -1 -11 -7 -17z m-2011 -86 c-6 -31 -17 -88
-24 -127 -8 -38 -12 -96 -10 -127 3 -47 1 -58 -12 -58 -15 0 -21 39 -16 98 3
32 -17 27 -24 -5 -9 -43 -19 -56 -44 -60 -32 -5 -58 12 -63 42 -4 18 6 45 32
88 20 34 54 93 74 131 21 37 47 77 58 88 19 19 21 19 30 4 6 -11 6 -38 -1 -74z
m-1846 48 c-3 -5 -21 -10 -38 -10 -24 0 -28 3 -17 10 20 13 63 13 55 0z m215
3 c-1 -12 -70 -88 -70 -77 0 5 4 16 10 24 6 9 5 17 -3 22 -8 5 -7 8 4 8 9 0
22 7 29 15 13 16 30 20 30 8z m1285 -15 c-8 -33 -21 -267 -15 -270 8 -4 40
-101 40 -120 0 -27 -39 -9 -45 21 -3 14 -12 48 -20 75 -8 27 -11 54 -8 59 3 6
1 7 -5 3 -16 -10 -16 102 -1 141 14 36 53 113 56 113 2 0 1 -10 -2 -22z m2022
-40 c2 -17 0 -19 -6 -9 -7 10 -19 -8 -45 -64 -20 -43 -36 -80 -36 -83 0 -3 -8
-11 -17 -19 -10 -8 -13 -12 -8 -9 6 2 2 -31 -9 -76 -17 -69 -18 -89 -9 -144
12 -71 38 -128 87 -189 l31 -40 -34 20 c-42 25 -116 130 -131 185 -13 49 -2
116 33 211 43 115 114 239 135 239 4 0 9 -10 9 -22z m-2300 -30 c-3 -8 -6 -5
-6 6 -1 11 2 17 5 13 3 -3 4 -12 1 -19z m-1170 -23 c-4 -8 -2 -17 4 -21 12 -7
2 -82 -14 -102 -5 -7 -7 -15 -4 -19 4 -3 2 -14 -4 -24 -5 -11 -6 -19 -1 -19 5
0 3 -26 -4 -57 -8 -32 -18 -76 -23 -98 -5 -22 -6 -44 -1 -50 12 -15 -13 -67
-54 -113 -36 -39 -258 -172 -287 -172 -10 0 -10 3 -3 8 22 14 72 130 118 272
84 259 84 259 156 329 67 65 130 101 117 66z m1228 -84 c3 -5 1 -12 -4 -15 -5
-3 -8 -26 -8 -51 1 -25 -1 -45 -5 -45 -5 0 -8 27 -8 60 0 55 10 75 25 51z
m2679 -87 c3 -8 2 -12 -4 -9 -6 3 -10 10 -10 16 0 14 7 11 14 -7z m-1461 -114
c19 -16 51 -61 71 -99 52 -100 44 -101 -12 -1 -30 53 -60 93 -81 107 -19 13
-29 23 -23 23 6 0 27 -13 45 -30z m-2130 -25 c-3 -9 -8 -14 -10 -11 -3 3 -2 9
2 15 9 16 15 13 8 -4z m31 -82 c-21 -40 -45 -73 -51 -73 -19 0 -16 13 10 51
13 19 34 53 47 77 41 73 35 24 -6 -55z m1272 29 c5 -26 3 -32 -10 -32 -33 0 8
-96 109 -260 43 -69 90 -125 170 -204 60 -60 125 -120 143 -134 l34 -26 18 24
18 23 11 -21 c8 -14 8 -22 1 -22 -5 0 -10 -5 -10 -11 0 -5 4 -8 9 -5 5 3 56
-42 115 -99 98 -97 136 -123 136 -93 0 6 -42 53 -94 103 -52 51 -106 111 -120
133 -22 36 -30 41 -78 47 -50 7 -58 13 -151 104 -87 85 -174 195 -193 245 -7
17 203 -123 253 -170 15 -14 38 -24 54 -24 16 0 38 -9 50 -21 23 -23 49 -32
97 -32 32 0 43 -12 20 -20 -7 -2 9 -3 37 -1 89 5 199 -59 232 -136 9 -23 13
-52 9 -83 -7 -62 7 -90 66 -132 34 -25 46 -39 41 -51 -5 -13 -16 -15 -72 -9
-36 4 -82 8 -101 10 -65 5 -125 32 -210 94 -68 49 -183 121 -194 121 -14 0
-106 47 -166 86 -110 70 -201 163 -245 248 -21 42 -42 76 -47 76 -5 0 -7 4 -4
9 3 5 1 35 -5 67 -11 59 1 185 22 242 10 25 10 25 29 6 11 -10 22 -34 26 -52z
m396 9 c27 -22 48 -80 48 -133 0 -145 117 -261 305 -304 39 -8 84 -19 100 -23
24 -5 47 -31 113 -126 105 -152 136 -184 230 -239 106 -61 284 -141 360 -162
60 -17 82 -34 43 -34 -75 0 -399 151 -478 223 -13 11 -23 16 -23 10 0 -6 10
-18 23 -26 12 -9 39 -32 61 -51 21 -19 95 -62 165 -96 69 -34 139 -68 154 -76
16 -8 37 -14 47 -14 10 0 22 -5 25 -10 4 -6 15 -8 26 -5 33 11 291 -36 277
-51 -2 -2 -42 2 -88 8 -96 12 -142 13 -215 5 -53 -6 -147 15 -175 38 -8 7 -39
21 -67 31 -29 10 -55 25 -58 32 -2 7 0 10 5 7 6 -3 10 0 10 8 0 7 -21 24 -47
36 -72 34 -173 129 -173 163 0 15 -4 30 -10 33 -5 3 -29 36 -53 73 -98 150
-164 197 -337 243 -131 35 -175 62 -227 140 -25 38 -50 69 -54 69 -5 0 -9 15
-9 33 0 17 -4 38 -8 45 -6 8 -9 2 -9 -18 0 -39 -15 -50 -59 -40 -41 9 -64 27
-64 47 0 13 3 13 23 -1 40 -29 49 -30 69 -7 21 27 25 95 6 89 -17 -6 -23 -48
-7 -48 8 0 9 -3 0 -13 -18 -23 -65 -9 -84 25 -23 40 -22 48 7 48 14 0 38 11
54 25 17 14 37 25 47 25 12 0 15 5 10 20 -8 25 5 25 37 1z m-1057 -41 c3 -5 1
-10 -4 -10 -6 0 -11 5 -11 10 0 6 2 10 4 10 3 0 8 -4 11 -10z m-1299 -67 c-18
-33 -21 -26 -6 13 6 15 13 24 16 21 3 -3 -1 -18 -10 -34z m626 -35 c-7 -7 -12
-8 -12 -2 0 14 12 26 19 19 2 -3 -1 -11 -7 -17z m1119 -7 c0 -9 2 -23 4 -31 9
-34 33 -195 29 -199 -2 -2 -24 17 -50 43 -45 46 -46 49 -40 96 4 26 2 60 -4
74 -8 23 -7 28 13 35 28 11 47 4 48 -18z m1169 -6 c0 -5 -5 -3 -10 5 -5 8 -10
20 -10 25 0 6 5 3 10 -5 5 -8 10 -19 10 -25z m1680 5 c0 -5 -2 -10 -4 -10 -3
0 -8 5 -11 10 -3 6 -1 10 4 10 6 0 11 -4 11 -10z m-4039 -43 c-10 -9 -11 -8
-5 6 3 10 9 15 12 12 3 -3 0 -11 -7 -18z m-20 -40 c-10 -9 -11 -8 -5 6 3 10 9
15 12 12 3 -3 0 -11 -7 -18z m2501 -179 c27 -56 102 -172 137 -212 14 -18 13
-18 -14 1 -52 37 -120 122 -135 171 -5 15 -27 69 -49 120 -76 172 -44 130 61
-80z m2208 127 c0 -8 -2 -15 -4 -15 -2 0 -6 7 -10 15 -3 8 -1 15 4 15 6 0 10
-7 10 -15z m140 -190 c0 -11 7 -14 25 -9 29 7 36 -13 8 -22 -10 -3 -25 -9 -34
-14 -14 -7 -18 -3 -21 21 -3 16 -2 31 0 34 10 10 22 5 22 -10z m106 -73 c17
-16 55 -47 86 -70 53 -41 143 -136 202 -214 40 -54 161 -154 260 -217 47 -30
89 -64 92 -75 4 -11 15 -32 25 -46 16 -21 17 -31 9 -60 -5 -19 -10 -49 -10
-67 0 -43 -40 -88 -87 -99 -21 -5 -67 -6 -103 -3 -36 4 -101 7 -144 8 -102 1
-339 44 -451 81 l-60 20 50 -4 c66 -6 230 20 281 44 22 11 53 33 68 49 26 27
27 32 16 65 -7 22 -22 42 -38 50 -47 23 -225 77 -284 86 -77 11 -107 27 -142
77 -21 30 -31 58 -34 96 -4 50 -2 56 32 93 20 21 36 44 36 51 0 19 18 25 40
13 14 -8 26 -8 41 1 17 8 31 7 65 -6 24 -9 44 -20 44 -25 0 -4 17 -18 38 -31
29 -18 33 -24 19 -27 -18 -4 -18 -5 -1 -23 12 -14 20 -16 30 -8 9 8 17 4 29
-15 10 -14 22 -26 29 -26 6 0 31 -24 55 -54 42 -54 96 -85 113 -68 5 5 -3 20
-19 33 -15 13 -50 49 -78 79 -145 158 -233 217 -308 207 -23 -2 -50 -8 -59
-12 -52 -21 14 71 72 101 25 13 47 24 51 24 3 0 19 -13 35 -28z m-1969 -224
c15 -16 22 -28 15 -28 -6 0 -13 4 -17 9 -7 12 -64 41 -81 41 -7 0 -17 6 -21
13 -4 6 -13 12 -19 12 -15 0 -94 72 -94 86 0 7 10 9 25 7 14 -3 25 -2 25 2 0
3 9 16 21 29 l21 22 50 -83 c27 -46 61 -95 75 -110z m-1603 55 c25 -53 73
-129 123 -194 24 -30 43 -61 43 -67 0 -17 -25 -15 -40 3 -7 8 -16 12 -21 9 -5
-3 -9 -2 -8 3 4 21 -3 36 -34 70 -52 59 -97 130 -97 153 0 12 -4 19 -9 16 -5
-3 -8 6 -8 19 0 39 30 31 51 -12z m3076 27 c0 -5 -4 -10 -10 -10 -5 0 -10 5
-10 10 0 6 5 10 10 10 6 0 10 -4 10 -10z m190 -116 c-5 -27 -12 -65 -15 -85
-5 -34 -39 -93 -86 -149 l-20 -25 6 38 c4 28 2 39 -9 43 -21 8 -10 50 20 83
13 14 26 38 30 55 5 25 72 101 81 92 2 -2 -1 -25 -7 -52z m-1529 -124 c58 -20
122 -46 143 -58 20 -12 44 -22 52 -22 8 0 32 -12 54 -26 22 -15 43 -24 46 -21
3 3 -10 16 -30 29 -38 24 -48 43 -18 34 9 -3 58 -17 107 -32 123 -38 194 -37
286 6 77 35 88 34 152 -13 60 -45 114 -72 172 -86 167 -40 205 -60 287 -151
64 -72 124 -122 188 -154 43 -22 150 -34 150 -17 0 6 -12 11 -26 11 -43 0
-172 60 -223 104 -27 22 -67 65 -90 94 -68 85 -120 117 -246 147 -60 15 -126
34 -145 43 l-35 15 40 9 c106 25 230 -27 360 -153 133 -127 314 -226 459 -249
39 -6 91 -16 115 -22 47 -12 101 -51 101 -74 0 -8 5 -14 10 -14 6 0 10 4 10
10 0 12 82 60 103 60 10 0 17 5 17 10 0 6 9 10 21 10 11 0 18 -4 14 -9 -3 -5
19 -17 49 -25 40 -12 69 -30 110 -69 53 -50 69 -77 46 -77 -5 0 -10 -14 -10
-30 0 -27 -6 -33 -46 -50 -57 -25 -68 -25 -102 0 -27 20 -30 20 -98 4 l-71
-15 -69 36 -69 37 -255 -8 c-222 -6 -265 -4 -332 11 -45 10 -83 24 -94 36 -9
10 -27 19 -38 19 -17 0 -18 2 -7 9 17 11 1 16 -82 25 -79 9 -131 39 -225 130
-87 84 -138 116 -185 116 -61 0 -167 75 -203 143 -8 15 -19 27 -24 27 -16 0
-12 -14 13 -40 37 -40 41 -66 5 -30 -33 33 -106 70 -138 70 -10 0 -45 13 -77
30 -32 16 -96 39 -143 51 -91 24 -96 26 -88 35 6 5 222 -46 273 -66 16 -6 45
-18 63 -27 18 -9 36 -13 39 -9 7 7 -26 46 -40 46 -5 0 -23 7 -40 15 -18 8 -68
30 -112 49 -131 56 -229 101 -250 115 l-20 13 20 -8 c11 -4 68 -24 126 -44z
m1162 26 c34 -15 109 -86 90 -86 -7 0 -14 4 -17 8 -11 18 -152 65 -195 65 -25
0 -80 -12 -121 -26 -86 -31 -119 -21 -44 13 27 13 65 26 84 30 59 13 169 11
203 -4z m460 -97 c33 -12 74 -30 92 -40 18 -11 66 -28 109 -39 113 -30 186
-65 186 -89 0 -24 -49 -66 -92 -79 -56 -17 -241 -22 -295 -8 -85 23 -148 62
-189 118 l-23 31 29 34 c17 18 30 38 30 42 0 11 60 49 79 50 8 1 41 -9 74 -20z
m-3159 -14 c11 -8 15 -15 9 -15 -7 0 -15 5 -18 11 -4 6 -14 8 -22 5 -8 -3 -11
-1 -8 4 8 13 16 12 39 -5z m1186 -90 c25 -8 83 -24 130 -35 48 -11 93 -29 104
-40 19 -19 19 -19 -7 -54 -15 -19 -27 -39 -27 -45 0 -5 -8 -12 -17 -14 -11 -3
-7 -5 10 -6 15 0 27 -5 27 -10 0 -14 -73 -81 -88 -81 -7 0 -10 -5 -7 -11 10
-15 -78 -1 -137 22 -107 42 -156 96 -173 191 l-7 36 57 18 c32 10 60 24 62 31
7 17 18 16 73 -2z m-414 -142 c8 -29 20 -55 25 -58 5 -4 9 -12 9 -18 0 -7 -23
22 -50 63 -27 41 -50 84 -50 94 0 37 49 -24 66 -81z m1369 -105 c7 -7 -4 -8
-35 -4 -59 9 -72 23 -17 18 23 -2 47 -9 52 -14z m-1028 -585 c-3 -10 -5 -4 -5
12 0 17 2 24 5 18 2 -7 2 -21 0 -30z m124 -153 c24 -11 54 -20 67 -20 14 0 21
-4 16 -11 -4 -7 -21 -9 -45 -5 -37 6 -49 -1 -31 -18 4 -4 7 -13 7 -18 0 -6 6
-13 14 -16 10 -3 12 0 7 13 -5 15 -2 16 26 11 99 -19 220 -18 216 2 -3 15 15
42 27 42 8 0 10 -9 7 -26 -3 -19 -16 -31 -47 -45 -23 -10 -48 -26 -55 -35 -9
-10 -26 -14 -54 -12 -41 3 -44 0 -31 -34 5 -13 2 -18 -11 -18 -39 0 -90 21
-124 49 -33 28 -35 32 -35 95 0 36 1 66 1 66 1 0 21 -9 45 -20z m417 -129 c28
-33 0 -91 -44 -91 -13 0 -26 -5 -30 -11 -7 -12 -180 -6 -192 6 -14 13 25 25
64 19 48 -7 65 8 29 24 -18 8 -33 8 -55 0 -22 -7 -35 -7 -42 0 -8 8 -2 13 18
17 59 14 68 18 108 55 23 20 48 39 56 42 14 5 56 -25 88 -61z m-411 -73 c29
-13 53 -26 53 -29 0 -10 -88 7 -104 21 -17 13 -21 30 -8 30 4 0 31 -10 59 -22z"></path>
<path d="M3020 4526 c0 -7 40 -14 44 -7 3 4 -6 8 -20 9 -13 1 -24 0 -24 -2z"></path>
<path d="M4518 4383 c7 -3 16 -2 19 1 4 3 -2 6 -13 5 -11 0 -14 -3 -6 -6z"></path>
<path d="M4970 4393 c1 -7 49 -42 118 -85 27 -16 182 -31 182 -17 0 11 -42 19
-102 19 -52 0 -61 4 -111 45 -51 41 -88 57 -87 38z"></path>
<path d="M4767 4113 c-10 -9 -9 -23 2 -23 5 0 11 7 15 15 5 15 -5 20 -17 8z"></path>
<path d="M4830 4106 c0 -2 7 -9 15 -16 12 -10 15 -10 15 4 0 9 -7 16 -15 16
-8 0 -15 -2 -15 -4z"></path>
<path d="M4884 4057 c-7 -18 -49 -23 -59 -7 -7 12 -45 14 -45 3 0 -5 21 -23
46 -42 34 -26 48 -31 56 -23 7 7 8 12 4 12 -5 0 -1 12 9 26 12 18 14 29 6 37
-7 7 -12 5 -17 -6z"></path>
<path d="M6010 3712 c0 -5 11 -14 25 -20 28 -13 32 -8 11 14 -16 15 -36 19
-36 6z"></path>
<path d="M6270 3690 c0 -5 4 -10 9 -10 6 0 13 5 16 10 3 6 -1 10 -9 10 -9 0
-16 -4 -16 -10z"></path>
<path d="M6182 3683 c-6 -2 -10 -9 -6 -14 10 -18 -22 -19 -66 -4 -44 15 -44
15 -25 -3 29 -27 94 -47 108 -33 6 6 24 11 39 11 15 0 28 5 28 10 0 6 -4 10
-10 10 -5 0 -10 7 -10 15 0 15 -31 19 -58 8z"></path>
<path d="M4510 4263 c-34 -24 -39 -25 -153 -20 -85 4 -117 2 -114 -6 2 -6 20
-15 41 -19 21 -5 52 -18 69 -30 42 -30 129 -31 172 -3 62 41 98 106 37 68
l-27 -17 24 27 c22 25 23 27 5 26 -10 0 -35 -12 -54 -26z"></path>
<path d="M3593 3746 c-68 -71 -72 -86 -11 -44 34 23 91 95 86 108 -2 6 -36
-23 -75 -64z"></path>
<path d="M2606 3732 c-7 -12 66 -29 172 -42 51 -6 151 -26 223 -45 132 -35
179 -42 179 -26 0 4 12 6 28 3 18 -3 24 -1 17 6 -5 6 -37 12 -70 15 -33 3
-100 16 -150 31 -148 42 -387 77 -399 58z"></path>
<path d="M3438 3657 c-47 -10 -66 -27 -30 -27 27 0 91 20 97 30 7 12 -3 11
-67 -3z"></path>
<path d="M3303 3643 c-13 -2 -23 -11 -23 -19 0 -12 8 -14 38 -9 54 9 64 14 57
25 -6 10 -30 11 -72 3z"></path>
<path d="M3560 3640 c0 -5 -13 -7 -30 -3 -19 3 -30 1 -30 -6 0 -6 11 -11 25
-11 14 0 25 -4 25 -10 0 -19 15 -10 27 15 9 20 8 25 -3 25 -8 0 -14 -4 -14
-10z"></path>
<path d="M3280 3521 c0 -10 141 -95 175 -106 11 -4 34 -13 50 -20 75 -32 132
-43 174 -32 59 16 50 26 -22 25 -58 -1 -74 4 -213 70 -159 75 -164 77 -164 63z"></path>
<path d="M3620 3332 c0 -10 41 -24 49 -17 6 7 0 11 -26 19 -13 4 -23 3 -23 -2z"></path>
<path d="M3690 3310 c0 -5 5 -10 10 -10 6 0 10 5 10 10 0 6 -4 10 -10 10 -5 0
-10 -4 -10 -10z"></path>
<path d="M5200 3780 c0 -17 62 -60 87 -60 13 0 23 5 21 10 -4 14 -108 62 -108
50z"></path>
<path d="M4880 3720 c0 -5 5 -10 10 -10 6 0 10 5 10 10 0 6 -4 10 -10 10 -5 0
-10 -4 -10 -10z"></path>
<path d="M4900 3540 c0 -5 7 -10 15 -10 8 0 15 5 15 10 0 6 -7 10 -15 10 -8 0
-15 -4 -15 -10z"></path>
<path d="M5105 3489 c-11 -17 1 -21 15 -4 8 9 8 15 2 15 -6 0 -14 -5 -17 -11z"></path>
<path d="M2874 3357 c10 -15 23 -27 28 -27 16 0 4 22 -22 39 l-24 16 18 -28z"></path>
<path d="M2920 3322 c0 -5 11 -19 25 -32 30 -28 34 -13 5 18 -22 23 -30 27
-30 14z"></path>
<path d="M3260 3072 c0 -12 52 -58 75 -66 24 -9 125 3 125 15 0 5 -26 9 -58 9
-45 0 -65 5 -94 25 -39 27 -48 30 -48 17z"></path>
<path d="M3490 2960 c0 -5 23 -10 50 -10 28 0 50 5 50 10 0 6 -22 10 -50 10
-27 0 -50 -4 -50 -10z"></path>
<path d="M3390 2950 c0 -5 7 -10 15 -10 8 0 15 5 15 10 0 6 -7 10 -15 10 -8 0
-15 -4 -15 -10z"></path>
<path d="M3670 2950 c0 -5 5 -10 10 -10 6 0 10 5 10 10 0 6 -4 10 -10 10 -5 0
-10 -4 -10 -10z"></path>
<path d="M3581 2891 c-19 -24 -44 -42 -61 -46 -30 -7 -52 -25 -30 -25 25 0 78
33 115 70 27 28 34 40 23 40 -9 0 -30 -18 -47 -39z"></path>
<path d="M4620 2747 c0 -15 29 -57 30 -42 0 6 -3 20 -6 33 -7 24 -24 31 -24 9z"></path>
<path d="M1140 3320 l-25 -8 28 -1 c15 -1 27 4 27 9 0 6 -1 10 -2 9 -2 -1 -14
-5 -28 -9z"></path>
<path d="M1188 3323 c7 -3 16 -2 19 1 4 3 -2 6 -13 5 -11 0 -14 -3 -6 -6z"></path>
<path d="M1088 3303 c7 -3 16 -2 19 1 4 3 -2 6 -13 5 -11 0 -14 -3 -6 -6z"></path>
<path d="M2238 3313 c12 -2 32 -2 45 0 12 2 2 4 -23 4 -25 0 -35 -2 -22 -4z"></path>
<path d="M2520 3231 c0 -5 10 -13 21 -16 12 -4 56 -30 98 -59 84 -58 123 -77
101 -51 -7 8 -18 15 -24 15 -7 0 -23 11 -35 24 -12 13 -39 32 -59 42 -20 11
-48 27 -61 37 -26 19 -41 22 -41 8z"></path>
<path d="M2340 3190 c-16 -10 -9 -14 40 -23 14 -2 33 -8 43 -12 10 -4 17 -3
17 4 0 11 -17 20 -65 34 -11 4 -27 2 -35 -3z"></path>
<path d="M2765 3080 c3 -5 15 -10 26 -10 11 0 17 5 14 10 -3 6 -15 10 -26 10
-11 0 -17 -4 -14 -10z"></path>
<path d="M2855 3026 c16 -13 34 -22 39 -19 11 7 -34 42 -54 43 -9 0 -3 -10 15
-24z"></path>
<path d="M2600 2882 c0 -4 9 -13 20 -19 16 -11 18 -10 14 1 -6 15 -34 30 -34
18z"></path>
<path d="M2675 2850 c4 -6 11 -8 16 -5 14 9 11 15 -7 15 -8 0 -12 -5 -9 -10z"></path>
<path d="M2485 2761 c-10 -17 9 -19 45 -5 l35 12 -37 1 c-20 1 -39 -3 -43 -8z"></path>
<path d="M2590 2750 c0 -3 12 -17 26 -31 14 -13 37 -43 51 -66 14 -24 27 -43
30 -43 14 0 -9 75 -31 105 -22 29 -76 54 -76 35z"></path>
<path d="M2540 2720 c0 -5 7 -10 15 -10 8 0 15 5 15 10 0 6 -7 10 -15 10 -8 0
-15 -4 -15 -10z"></path>
<path d="M2400 2690 c-8 -5 -12 -11 -9 -14 2 -3 11 -1 19 4 8 5 12 11 9 14 -2
3 -11 1 -19 -4z"></path>
<path d="M2712 2583 c-13 -3 -21 -10 -19 -16 2 -8 24 -11 63 -9 53 3 64 0 109
-30 39 -25 63 -55 107 -128 32 -52 58 -91 58 -88 0 4 -18 45 -41 92 -66 139
-162 201 -277 179z"></path>
<path d="M3050 2245 c0 -5 5 -17 10 -25 5 -8 10 -10 10 -5 0 6 -5 17 -10 25
-5 8 -10 11 -10 5z"></path>
<path d="M3673 2665 c-3 -9 -3 -18 0 -21 9 -9 27 6 27 22 0 19 -19 18 -27 -1z"></path>
<path d="M4910 2562 c0 -14 70 -65 78 -57 14 13 -24 60 -51 63 -15 2 -27 -1
-27 -6z"></path>
<path d="M3618 2503 c-19 -22 -32 -63 -20 -63 5 0 16 18 25 40 17 45 17 48 -5
23z"></path>
<path d="M4240 1965 c7 -9 15 -13 17 -11 7 7 -7 26 -19 26 -6 0 -6 -6 2 -15z"></path>
<path d="M4180 1536 c0 -9 5 -16 10 -16 6 0 10 4 10 9 0 6 -4 13 -10 16 -5 3
-10 -1 -10 -9z"></path>
<path d="M1530 2320 c0 -13 74 -115 91 -126 21 -13 6 17 -37 72 -56 72 -54 70
-54 54z"></path>
<path d="M1665 2236 c10 -14 19 -26 22 -26 7 0 -17 39 -28 46 -6 3 -3 -5 6
-20z"></path>
<path d="M1650 2165 c0 -15 57 -81 64 -74 3 3 -10 23 -29 45 -19 21 -34 34
-35 29z"></path>
<path d="M4105 2570 c3 -5 8 -10 11 -10 2 0 4 5 4 10 0 6 -5 10 -11 10 -5 0
-7 -4 -4 -10z"></path>
<path d="M3756 2585 c-9 -26 -7 -32 5 -12 6 10 9 21 6 23 -2 3 -7 -2 -11 -11z"></path>
<path d="M2080 1953 c0 -13 29 -38 35 -31 3 3 -4 13 -15 23 -11 10 -20 13 -20
8z"></path>
<path d="M2155 1880 c3 -5 11 -10 16 -10 6 0 7 5 4 10 -3 6 -11 10 -16 10 -6
0 -7 -4 -4 -10z"></path>
<path d="M5336 1551 c-8 -12 3 -41 15 -41 12 0 12 37 0 45 -5 3 -12 1 -15 -4z"></path>
<path d="M6159 1188 c-1 -7 -1 -36 1 -64 1 -45 -1 -53 -24 -68 -36 -23 -34
-46 3 -46 41 0 71 40 71 95 0 26 -6 48 -15 55 -8 7 -15 19 -15 26 0 17 -20 19
-21 2z"></path>
<path d="M5140 1414 c0 -8 5 -12 10 -9 6 3 10 10 10 16 0 5 -4 9 -10 9 -5 0
-10 -7 -10 -16z"></path>
<path d="M4690 1330 c0 -5 5 -10 10 -10 6 0 10 5 10 10 0 6 -4 10 -10 10 -5 0
-10 -4 -10 -10z"></path>
<path d="M5496 851 c-16 -3 -31 -11 -33 -18 -4 -12 136 -24 143 -11 7 11 -38
38 -61 37 -11 -1 -33 -4 -49 -8z"></path>
<path d="M5290 830 c0 -5 7 -10 15 -10 8 0 15 5 15 10 0 6 -7 10 -15 10 -8 0
-15 -4 -15 -10z"></path>
<path d="M3340 1200 c0 -5 18 -19 40 -30 22 -11 40 -27 40 -35 0 -7 5 -17 11
-20 6 -4 9 0 7 11 -2 15 2 18 22 16 37 -4 46 -18 27 -40 -21 -23 -13 -32 26
-32 23 0 27 3 18 13 -8 11 -5 19 14 35 14 12 30 22 36 22 7 0 9 9 5 23 -3 12
-6 26 -6 31 0 5 -7 2 -16 -5 -28 -23 -107 -23 -153 0 -43 23 -71 27 -71 11z"></path>
<path d="M3300 1160 c-10 -24 -10 -33 1 -46 11 -14 14 -13 25 8 18 31 17 68 0
68 -7 0 -19 -14 -26 -30z"></path>
<path d="M3410 1050 c0 -5 5 -10 11 -10 5 0 7 5 4 10 -3 6 -8 10 -11 10 -2 0
-4 -4 -4 -10z"></path>
<path d="M3440 170 c0 -14 58 -42 78 -38 11 3 2 11 -27 26 -51 25 -51 25 -51
12z"></path>
<path d="M6900 4658 c0 -7 -3 -23 -6 -35 -5 -17 -2 -23 9 -23 20 0 29 27 17
51 -12 22 -20 25 -20 7z"></path>
<path d="M4298 4619 c19 -17 36 -28 39 -25 7 6 -48 55 -62 55 -5 0 5 -13 23
-30z"></path>
<path d="M5865 4610 c-3 -5 -1 -10 4 -10 6 0 11 5 11 10 0 6 -2 10 -4 10 -3 0
-8 -4 -11 -10z"></path>
<path d="M1280 4591 c0 -5 5 -13 10 -16 6 -3 10 -2 10 4 0 5 -4 13 -10 16 -5
3 -10 2 -10 -4z"></path>
<path d="M6929 4558 c4 -32 5 -32 11 -8 7 26 4 40 -9 40 -4 0 -5 -15 -2 -32z"></path>
<path d="M5720 4535 c0 -8 5 -15 10 -15 6 0 10 7 10 15 0 8 -4 15 -10 15 -5 0
-10 -7 -10 -15z"></path>
<path d="M6802 4528 c2 -6 10 -14 16 -16 7 -2 10 2 6 12 -7 18 -28 22 -22 4z"></path>
<path d="M6881 4481 c-12 -8 -12 -12 -2 -25 11 -13 46 -14 59 -1 3 3 18 -7 34
-22 l28 -27 0 42 c0 35 -3 42 -19 42 -11 0 -21 -5 -23 -11 -3 -9 -9 -9 -25 0
-26 13 -33 14 -52 2z"></path>
<path d="M6851 4404 c0 -11 3 -14 6 -6 3 7 2 16 -1 19 -3 4 -6 -2 -5 -13z"></path>
<path d="M880 3557 c-22 -10 -19 -12 39 -15 68 -3 91 1 91 18 0 14 -99 12
-130 -3z"></path>
<path d="M6320 3430 c0 -5 5 -10 10 -10 6 0 10 5 10 10 0 6 -4 10 -10 10 -5 0
-10 -4 -10 -10z"></path>
<path d="M6160 3360 c0 -5 5 -10 10 -10 6 0 10 5 10 10 0 6 -4 10 -10 10 -5 0
-10 -4 -10 -10z"></path>
<path d="M6425 3239 c-4 -6 -5 -12 -2 -15 7 -7 37 7 37 17 0 13 -27 11 -35 -2z"></path>
<path d="M6480 3234 c0 -8 43 -43 53 -44 4 0 7 11 7 25 0 21 -5 25 -30 25 -16
0 -30 -3 -30 -6z"></path>
<path d="M6650 3191 c0 -5 7 -11 15 -15 9 -3 15 0 15 9 0 8 -7 15 -15 15 -8 0
-15 -4 -15 -9z"></path>
<path d="M5740 3151 c0 -11 26 -22 34 -14 3 3 3 10 0 14 -7 12 -34 11 -34 0z"></path>
<path d="M5810 2650 c0 -5 5 -10 10 -10 6 0 10 5 10 10 0 6 -4 10 -10 10 -5 0
-10 -4 -10 -10z"></path>
<path d="M5850 2640 c0 -5 5 -10 10 -10 6 0 10 5 10 10 0 6 -4 10 -10 10 -5 0
-10 -4 -10 -10z"></path>
<path d="M5890 2632 c0 -10 41 -24 49 -17 6 7 0 11 -26 19 -13 4 -23 3 -23 -2z"></path>
<path d="M6043 2616 c-26 -12 -30 -26 -8 -26 8 0 19 9 25 20 6 11 9 19 8 19
-2 -1 -13 -6 -25 -13z"></path>
<path d="M6165 2589 c-4 -17 -4 -33 -1 -36 9 -9 12 -2 19 35 8 41 -9 42 -18 1z"></path>
<path d="M5578 2553 c-36 -9 -18 -26 20 -19 20 3 47 6 60 6 12 0 22 5 22 10 0
10 -69 12 -102 3z"></path>
<path d="M6440 2505 c-7 -9 -11 -18 -8 -20 7 -8 68 16 68 26 0 15 -47 10 -60
-6z"></path>
<path d="M6888 2504 c-9 -14 11 -56 22 -49 13 8 13 18 -3 40 -8 10 -16 14 -19
9z"></path>
<path d="M6180 2490 c0 -5 5 -10 10 -10 6 0 10 5 10 10 0 6 -4 10 -10 10 -5 0
-10 -4 -10 -10z"></path>
<path d="M6322 2488 c5 -15 28 -18 29 -3 0 6 -7 12 -17 13 -10 3 -15 -1 -12
-10z"></path>
<path d="M5550 2450 c0 -5 5 -10 10 -10 6 0 10 5 10 10 0 6 -4 10 -10 10 -5 0
-10 -4 -10 -10z"></path>
<path d="M6910 2400 c0 -19 5 -30 14 -30 10 0 14 10 14 30 -1 18 -6 30 -15 30
-8 0 -13 -12 -13 -30z"></path>
<path d="M6680 2393 c0 -10 100 -25 109 -17 9 9 -9 15 -58 21 -32 3 -51 2 -51
-4z"></path>
<path d="M6393 2357 c-25 -11 -31 -27 -10 -27 19 0 52 26 41 32 -5 3 -19 1
-31 -5z"></path>
<path d="M1280 2085 c0 -19 5 -35 10 -35 6 0 10 16 10 35 0 19 -4 35 -10 35
-5 0 -10 -16 -10 -35z"></path>
<path d="M6920 2040 c0 -5 5 -10 10 -10 6 0 10 5 10 10 0 6 -4 10 -10 10 -5 0
-10 -4 -10 -10z"></path>
<path d="M1450 1972 c6 -13 14 -21 18 -18 3 4 -2 14 -12 24 -18 16 -18 16 -6
-6z"></path>
<path d="M1520 1896 c0 -2 8 -10 18 -17 15 -13 16 -12 3 4 -13 16 -21 21 -21
13z"></path>
<path d="M1031 1832 c-30 -42 -26 -50 5 -12 15 17 24 33 21 36 -2 3 -14 -8
-26 -24z"></path>
<path d="M145 1720 c-3 -5 -2 -10 4 -10 5 0 13 5 16 10 3 6 2 10 -4 10 -5 0
-13 -4 -16 -10z"></path>
<path d="M6965 1680 c-3 -5 -2 -10 4 -10 5 0 13 5 16 10 3 6 2 10 -4 10 -5 0
-13 -4 -16 -10z"></path>
<path d="M1320 1590 c0 -5 5 -10 11 -10 5 0 7 5 4 10 -3 6 -8 10 -11 10 -2 0
-4 -4 -4 -10z"></path>
<path d="M2050 1310 c0 -13 49 -60 61 -60 5 0 9 5 9 10 0 6 -4 10 -8 10 -5 0
-15 11 -22 25 -13 25 -40 35 -40 15z"></path>
<path d="M2387 1259 c7 -7 15 -10 18 -7 3 3 -2 9 -12 12 -14 6 -15 5 -6 -5z"></path>
<path d="M2256 1253 c-8 -9 14 -33 30 -33 7 0 29 -11 49 -24 20 -14 57 -32 83
-42 26 -9 52 -23 59 -31 21 -26 181 -108 231 -118 57 -12 34 9 -43 40 -41 16
-75 33 -75 36 0 19 -322 184 -334 172z"></path>
<path d="M504 1235 c-16 -12 -16 -14 -3 -15 9 0 22 7 29 15 16 19 0 19 -26 0z"></path>
<path d="M2420 1247 c0 -3 21 -22 48 -43 26 -21 38 -28 27 -15 -21 24 -75 66
-75 58z"></path>
<path d="M386 1196 c-32 -23 -63 -51 -69 -62 -7 -12 9 -4 44 20 30 22 64 46
76 55 22 16 30 31 16 31 -5 -1 -34 -20 -67 -44z"></path>
<path d="M2790 965 c0 -15 38 -45 57 -45 14 0 38 -19 70 -57 135 -158 193
-224 193 -216 0 16 -168 219 -215 261 -40 35 -105 70 -105 57z"></path>
<path d="M120 688 c0 -20 40 -121 54 -138 7 -8 16 -23 19 -32 4 -12 17 -18 37
-18 41 0 38 12 -10 44 -22 14 -40 31 -40 36 0 20 -42 120 -51 120 -5 0 -9 -6
-9 -12z"></path>
<path d="M700 410 c-6 -11 -16 -20 -23 -19 -27 3 -37 -2 -52 -30 -20 -40 -4
-47 29 -14 18 18 30 23 37 16 12 -12 71 -2 76 13 2 7 -8 10 -29 8 -26 -3 -29
-1 -16 7 10 5 15 16 12 24 -8 21 -21 19 -34 -5z"></path>
<path d="M585 370 c3 -5 10 -10 16 -10 5 0 9 5 9 10 0 6 -7 10 -16 10 -8 0
-12 -4 -9 -10z"></path>
<path d="M440 318 c-7 -29 -15 -59 -17 -65 -3 -7 -1 -13 5 -13 5 0 13 11 16
25 4 14 13 25 21 25 20 0 28 35 13 59 -7 12 -15 21 -19 21 -3 0 -11 -24 -19
-52z"></path>
<path d="M524 335 c-14 -26 -16 -37 -7 -46 9 -9 8 -19 -8 -40 -32 -45 -7 -41
33 6 24 27 36 49 32 59 -9 23 -23 20 -17 -4 4 -14 0 -20 -11 -20 -21 0 -22 46
-1 54 8 3 15 10 15 16 0 21 -17 9 -36 -25z"></path>
<path d="M3150 360 c0 -5 14 -10 30 -10 17 0 30 5 30 10 0 6 -13 10 -30 10
-16 0 -30 -4 -30 -10z"></path>
<path d="M760 330 c0 -24 15 -27 24 -4 9 22 8 24 -9 24 -8 0 -15 -9 -15 -20z"></path>
<path d="M1845 340 c3 -5 10 -10 16 -10 5 0 9 5 9 10 0 6 -7 10 -16 10 -8 0
-12 -4 -9 -10z"></path>
<path d="M900 310 c0 -5 5 -10 10 -10 6 0 10 5 10 10 0 6 -4 10 -10 10 -5 0
-10 -4 -10 -10z"></path>
<path d="M1030 285 c-11 -13 -10 -14 4 -9 9 3 16 10 16 15 0 13 -6 11 -20 -6z"></path>
<path d="M752 278 c-14 -14 -16 -42 -2 -33 6 3 10 -1 10 -10 0 -9 -4 -14 -9
-10 -5 3 -12 1 -15 -4 -12 -18 10 -19 32 -2 20 14 22 21 13 44 -12 31 -13 31
-29 15z"></path>
<path d="M823 283 c-7 -3 -13 -12 -13 -20 0 -10 6 -13 16 -9 9 3 20 6 25 6 13
0 11 17 -3 22 -7 3 -19 3 -25 1z"></path>
<path d="M1440 260 c0 -5 7 -10 15 -10 8 0 15 5 15 10 0 6 -7 10 -15 10 -8 0
-15 -4 -15 -10z"></path>
<path d="M571 246 c-9 -11 -6 -12 14 -8 14 2 25 8 25 13 0 14 -26 11 -39 -5z"></path>
<path d="M690 235 c0 -14 5 -25 10 -25 6 0 10 11 10 25 0 14 -4 25 -10 25 -5
0 -10 -11 -10 -25z"></path>
<path d="M3232 224 c-23 -13 -51 -24 -62 -24 -11 0 -20 -4 -20 -10 0 -5 9 -10
21 -10 11 0 17 -4 14 -10 -9 -15 -42 -12 -49 5 -6 16 -53 20 -75 6 -7 -5 -10
-14 -6 -20 4 -7 -1 -23 -10 -37 -16 -25 -16 -25 5 -14 12 7 49 16 83 20 63 9
97 28 130 72 30 40 17 49 -31 22z"></path>
<path d="M915 220 c-3 -5 -1 -10 4 -10 6 0 11 5 11 10 0 6 -2 10 -4 10 -3 0
-8 -4 -11 -10z"></path>
<path d="M670 189 c0 -5 5 -7 10 -4 6 3 10 8 10 11 0 2 -4 4 -10 4 -5 0 -10
-5 -10 -11z"></path>
<path d="M850 165 c0 -8 5 -15 10 -15 6 0 10 7 10 15 0 8 -4 15 -10 15 -5 0
-10 -7 -10 -15z"></path>
<path d="M740 50 c0 -5 7 -10 15 -10 8 0 15 5 15 10 0 6 -7 10 -15 10 -8 0
-15 -4 -15 -10z"></path>
<path d="M820 40 c0 -5 7 -10 15 -10 8 0 15 5 15 10 0 6 -7 10 -15 10 -8 0
-15 -4 -15 -10z"></path>
<path d="M3567 9 c7 -7 15 -10 18 -7 3 3 -2 9 -12 12 -14 6 -15 5 -6 -5z"></path>
<path d="M3800 10 c-9 -6 -10 -10 -3 -10 6 0 15 5 18 10 8 12 4 12 -15 0z"></path>
</g>
</svg>